# Blender 3.1.0
# www.blender.org
mtllib arrow.mtl
o Cylinder
v 0.000000 -2.960000 -0.400000
v 0.006922 2.859233 -0.896698
v 0.178601 2.859233 -0.879789
v 0.078036 -2.960000 -0.392314
v 0.343683 2.859233 -0.829712
v 0.495823 2.859233 -0.748391
v 0.629176 2.859233 -0.638952
v 0.153073 -2.960000 -0.369552
v 0.738615 2.859233 -0.505599
v 0.222228 -2.960000 -0.332588
v 0.819936 2.859233 -0.353459
v 0.870013 2.859233 -0.188377
v 0.282843 -2.960000 -0.282843
v 0.886921 2.859233 -0.016698
v 0.870013 2.859233 0.154982
v 0.332588 -2.960000 -0.222228
v 0.819936 2.859233 0.320064
v 0.738615 2.859233 0.472204
v 0.629176 2.859233 0.605556
v 0.369552 -2.960000 -0.153073
v 0.495823 2.859233 0.714996
v 0.343683 2.859233 0.796316
v 0.392314 -2.960000 -0.078036
v 0.178601 2.859233 0.846393
v 0.006922 2.859233 0.863302
v 0.400000 -2.960000 0.000000
v -0.164758 2.859233 0.846393
v 0.392314 -2.960000 0.078036
v -0.329840 2.859233 0.796316
v -0.481980 2.859233 0.714995
v -0.615332 2.859233 0.605556
v 0.369552 -2.960000 0.153073
v -0.724771 2.859233 0.472204
v -0.806092 2.859233 0.320064
v 0.332588 -2.960000 0.222228
v -0.856169 2.859233 0.154982
v 0.282843 -2.960000 0.282843
v -0.873078 2.859233 -0.016698
v -0.856169 2.859233 -0.188377
v 0.222228 -2.960000 0.332588
v -0.806092 2.859233 -0.353459
v -0.724772 2.859233 -0.505599
v 0.153073 -2.960000 0.369552
v -0.615332 2.859233 -0.638951
v -0.481980 2.859233 -0.748391
v -0.329840 2.859233 -0.829712
v 0.078036 -2.960000 0.392314
v -0.164758 2.859233 -0.879789
v 0.006922 4.859233 -0.016698
v -0.000000 -2.960000 0.400000
v -0.078036 -2.960000 0.392314
v -0.153073 -2.960000 0.369552
v -0.222228 -2.960000 0.332588
v -0.282843 -2.960000 0.282843
v -0.332588 -2.960000 0.222228
v -0.369552 -2.960000 0.153073
v -0.392314 -2.960000 0.078036
v -0.400000 -2.960000 -0.000000
v -0.392314 -2.960000 -0.078036
v -0.369552 -2.960000 -0.153073
v -0.332588 -2.960000 -0.222228
v -0.282843 -2.960000 -0.282843
v -0.222228 -2.960000 -0.332588
v -0.153073 -2.960000 -0.369552
v -0.078036 -2.960000 -0.392314
v 0.000000 2.859233 -0.400000
v 0.078036 2.859233 -0.392314
v 0.153073 2.859233 -0.369552
v 0.222228 2.859233 -0.332588
v 0.282843 2.859233 -0.282843
v 0.332588 2.859233 -0.222228
v 0.369552 2.859233 -0.153073
v 0.392314 2.859233 -0.078036
v 0.400000 2.859233 0.000000
v 0.392314 2.859233 0.078036
v 0.369552 2.859233 0.153073
v 0.332588 2.859233 0.222228
v 0.282843 2.859233 0.282843
v 0.222228 2.859233 0.332588
v 0.153073 2.859233 0.369552
v 0.078036 2.859233 0.392314
v -0.000000 2.859233 0.400000
v -0.078036 2.859233 0.392314
v -0.153073 2.859233 0.369552
v -0.222228 2.859233 0.332588
v -0.282843 2.859233 0.282843
v -0.332588 2.859233 0.222228
v -0.369552 2.859233 0.153073
v -0.392314 2.859233 0.078036
v -0.400000 2.859233 -0.000000
v -0.392314 2.859233 -0.078036
v -0.369552 2.859233 -0.153073
v -0.332588 2.859233 -0.222228
v -0.282843 2.859233 -0.282843
v -0.222228 2.859233 -0.332588
v -0.153073 2.859233 -0.369552
v -0.078036 2.859233 -0.392314
vn 0.0392 -0.0000 -0.3981
vn 0.1161 -0.0000 -0.3828
vn 0.1886 -0.0000 -0.3528
vn 0.2538 -0.0000 -0.3092
vn 0.3092 -0.0000 -0.2538
vn 0.3528 -0.0000 -0.1886
vn 0.3828 -0.0000 -0.1161
vn 0.3981 -0.0000 -0.0392
vn 0.3981 -0.0000 0.0392
vn 0.3828 -0.0000 0.1161
vn 0.3528 -0.0000 0.1886
vn 0.3092 -0.0000 0.2538
vn 0.2538 -0.0000 0.3092
vn 0.1886 -0.0000 0.3528
vn 0.1161 -0.0000 0.3828
vn 0.0392 -0.0000 0.3981
vn -0.0392 -0.0000 0.3981
vn -0.1161 -0.0000 0.3828
vn -0.1886 -0.0000 0.3528
vn -0.2538 -0.0000 0.3092
vn -0.3092 -0.0000 0.2538
vn -0.3528 -0.0000 0.1886
vn -0.3828 -0.0000 0.1161
vn -0.3981 -0.0000 0.0392
vn -0.3981 -0.0000 -0.0392
vn -0.3828 -0.0000 -0.1161
vn -0.3528 -0.0000 -0.1886
vn -0.3092 -0.0000 -0.2538
vn -0.2538 -0.0000 -0.3092
vn -0.1886 -0.0000 -0.3528
vn -0.1161 -0.0000 -0.3828
vn -0.0392 -0.0000 -0.3981
vn -0.0000 -2.9600 -0.0000
vn 0.0116 2.8284 -0.1174
vn 0.0342 2.8284 -0.1129
vn 0.0556 2.8284 -0.1040
vn 0.0748 2.8284 -0.0912
vn 0.0912 2.8284 -0.0748
vn 0.1040 2.8284 -0.0556
vn 0.1129 2.8284 -0.0342
vn 0.1174 2.8284 -0.0116
vn 0.1174 2.8284 0.0116
vn 0.1129 2.8284 0.0342
vn 0.1040 2.8284 0.0556
vn 0.0912 2.8284 0.0748
vn 0.0748 2.8284 0.0912
vn 0.0556 2.8284 0.1040
vn 0.0342 2.8284 0.1129
vn 0.0116 2.8284 0.1174
vn -0.0116 2.8284 0.1174
vn -0.0342 2.8284 0.1129
vn -0.0556 2.8284 0.1040
vn -0.0748 2.8284 0.0912
vn -0.0912 2.8284 0.0748
vn -0.1040 2.8284 0.0556
vn -0.1129 2.8284 0.0342
vn -0.1174 2.8284 0.0116
vn -0.1174 2.8284 -0.0116
vn -0.1129 2.8284 -0.0342
vn -0.1040 2.8284 -0.0556
vn -0.0912 2.8284 -0.0748
vn -0.0748 2.8284 -0.0912
vn -0.0556 2.8284 -0.1040
vn -0.0342 2.8284 -0.1129
vn -0.0116 2.8284 -0.1174
vt 1.000000 0.500000
vt 0.000000 0.500000
vt 0.750000 0.490000
vt 0.750000 0.490000
vt 0.250000 0.490000
vt 0.296822 0.485388
vt 0.796822 0.485388
vt 0.968750 0.500000
vt 0.796822 0.485388
vt 0.341844 0.471731
vt 0.841844 0.471731
vt 0.383337 0.449553
vt 0.883337 0.449553
vt 0.419706 0.419706
vt 0.919706 0.419706
vt 0.937500 0.500000
vt 0.841844 0.471731
vt 0.449553 0.383337
vt 0.949553 0.383337
vt 0.906250 0.500000
vt 0.883337 0.449553
vt 0.471731 0.341844
vt 0.971731 0.341844
vt 0.485388 0.296822
vt 0.985388 0.296822
vt 0.875000 0.500000
vt 0.919706 0.419706
vt 0.490000 0.250000
vt 0.990000 0.250000
vt 0.485388 0.203178
vt 0.985388 0.203178
vt 0.843750 0.500000
vt 0.949553 0.383337
vt 0.471731 0.158156
vt 0.971731 0.158156
vt 0.449553 0.116663
vt 0.949553 0.116663
vt 0.419706 0.080294
vt 0.919706 0.080294
vt 0.812500 0.500000
vt 0.971731 0.341844
vt 0.383337 0.050447
vt 0.883337 0.050447
vt 0.341844 0.028269
vt 0.841844 0.028269
vt 0.781250 0.500000
vt 0.985388 0.296822
vt 0.296822 0.014612
vt 0.796822 0.014612
vt 0.250000 0.010000
vt 0.750000 0.010000
vt 0.750000 0.500000
vt 0.990000 0.250000
vt 0.203178 0.014612
vt 0.703178 0.014612
vt 0.718750 0.500000
vt 0.985388 0.203178
vt 0.158156 0.028269
vt 0.658156 0.028269
vt 0.116663 0.050447
vt 0.616663 0.050447
vt 0.080294 0.080294
vt 0.580294 0.080294
vt 0.687500 0.500000
vt 0.971731 0.158156
vt 0.050447 0.116663
vt 0.550447 0.116663
vt 0.028269 0.158156
vt 0.528269 0.158156
vt 0.656250 0.500000
vt 0.949553 0.116663
vt 0.014612 0.203178
vt 0.514612 0.203178
vt 0.625000 0.500000
vt 0.919706 0.080294
vt 0.010000 0.250000
vt 0.510000 0.250000
vt 0.014612 0.296822
vt 0.514612 0.296822
vt 0.593750 0.500000
vt 0.883337 0.050447
vt 0.028269 0.341844
vt 0.528269 0.341844
vt 0.050447 0.383337
vt 0.550447 0.383337
vt 0.562500 0.500000
vt 0.841844 0.028269
vt 0.080294 0.419706
vt 0.580294 0.419706
vt 0.116663 0.449553
vt 0.616663 0.449553
vt 0.658156 0.471731
vt 0.158156 0.471731
vt 0.531250 0.500000
vt 0.796822 0.014612
vt 0.703178 0.485388
vt 0.203178 0.485388
vt 0.250000 0.250000
vt 0.500000 0.500000
vt 0.750000 0.010000
vt 0.468750 0.500000
vt 0.703178 0.014612
vt 0.437500 0.500000
vt 0.658156 0.028269
vt 0.406250 0.500000
vt 0.616663 0.050447
vt 0.375000 0.500000
vt 0.580294 0.080294
vt 0.343750 0.500000
vt 0.550447 0.116663
vt 0.312500 0.500000
vt 0.528269 0.158156
vt 0.281250 0.500000
vt 0.514612 0.203178
vt 0.250000 0.500000
vt 0.510000 0.250000
vt 0.218750 0.500000
vt 0.514612 0.296822
vt 0.187500 0.500000
vt 0.528269 0.341844
vt 0.156250 0.500000
vt 0.550447 0.383337
vt 0.125000 0.500000
vt 0.580294 0.419706
vt 0.093750 0.500000
vt 0.616663 0.449553
vt 0.062500 0.500000
vt 0.658156 0.471731
vt 0.031250 0.500000
vt 0.703178 0.485388
vt 1.000000 0.991489
vt 0.000000 0.991489
vt 0.748112 0.354537
vt 0.968750 0.991489
vt 0.769395 0.352441
vt 0.937500 0.991489
vt 0.789860 0.346233
vt 0.906250 0.991489
vt 0.808720 0.336152
vt 0.875000 0.991489
vt 0.825251 0.322585
vt 0.843750 0.991489
vt 0.838818 0.306054
vt 0.812500 0.991489
vt 0.848899 0.287193
vt 0.781250 0.991489
vt 0.855107 0.266729
vt 0.750000 0.991489
vt 0.857203 0.245446
vt 0.718750 0.991489
vt 0.855107 0.224163
vt 0.687500 0.991489
vt 0.848899 0.203699
vt 0.656250 0.991489
vt 0.838818 0.184838
vt 0.625000 0.991489
vt 0.825251 0.168307
vt 0.593750 0.991489
vt 0.808720 0.154740
vt 0.562500 0.991489
vt 0.789860 0.144659
vt 0.531250 0.991489
vt 0.769395 0.138451
vt 0.500000 0.991489
vt 0.748112 0.136355
vt 0.468750 0.991489
vt 0.726830 0.138451
vt 0.437500 0.991489
vt 0.706365 0.144659
vt 0.406250 0.991489
vt 0.687505 0.154740
vt 0.375000 0.991489
vt 0.670973 0.168307
vt 0.343750 0.991489
vt 0.657407 0.184838
vt 0.312500 0.991489
vt 0.647325 0.203699
vt 0.281250 0.991489
vt 0.641117 0.224163
vt 0.250000 0.991489
vt 0.639021 0.245446
vt 0.218750 0.991489
vt 0.641118 0.266729
vt 0.187500 0.991489
vt 0.647325 0.287193
vt 0.156250 0.991489
vt 0.657406 0.306054
vt 0.125000 0.991489
vt 0.670973 0.322585
vt 0.093750 0.991489
vt 0.687505 0.336152
vt 0.062500 0.991489
vt 0.706365 0.346233
vt 0.031250 0.991489
vt 0.726830 0.352441
s 0
f 4/8/1 1/1/1 66/131/1 67/134/1
f 8/16/2 4/8/2 67/134/2 68/136/2
f 10/20/3 8/16/3 68/136/3 69/138/3
f 13/26/4 10/20/4 69/138/4 70/140/4
f 71/142/5 16/32/5 13/26/5 70/140/5
f 72/144/6 20/40/6 16/32/6 71/142/6
f 73/146/7 23/46/7 20/40/7 72/144/7
f 74/148/8 26/52/8 23/46/8 73/146/8
f 75/150/9 28/56/9 26/52/9 74/148/9
f 76/152/10 32/64/10 28/56/10 75/150/10
f 77/154/11 35/70/11 32/64/11 76/152/11
f 78/156/12 37/74/12 35/70/12 77/154/12
f 79/158/13 40/80/13 37/74/13 78/156/13
f 80/160/14 43/86/14 40/80/14 79/158/14
f 81/162/15 47/94/15 43/86/15 80/160/15
f 82/164/16 50/99/16 47/94/16 81/162/16
f 83/166/17 51/101/17 50/99/17 82/164/17
f 84/168/18 52/103/18 51/101/18 83/166/18
f 85/170/19 53/105/19 52/103/19 84/168/19
f 86/172/20 54/107/20 53/105/20 85/170/20
f 55/109/21 54/107/21 86/172/21 87/174/21
f 56/111/22 55/109/22 87/174/22 88/176/22
f 57/113/23 56/111/23 88/176/23 89/178/23
f 58/115/24 57/113/24 89/178/24 90/180/24
f 59/117/25 58/115/25 90/180/25 91/182/25
f 60/119/26 59/117/26 91/182/26 92/184/26
f 61/121/27 60/119/27 92/184/27 93/186/27
f 62/123/28 61/121/28 93/186/28 94/188/28
f 63/125/29 62/123/29 94/188/29 95/190/29
f 64/127/30 63/125/30 95/190/30 96/192/30
f 65/129/31 64/127/31 96/192/31 97/194/31
f 1/2/32 65/129/32 97/194/32 66/132/32
f 65/130/33 1/3/33 4/9/33 8/17/33 10/21/33 13/27/33 16/33/33 20/41/33 23/47/33 26/53/33 28/57/33 32/65/33 35/71/33 37/75/33 40/81/33 43/87/33 47/95/33 50/100/33 51/102/33 52/104/33 53/106/33 54/108/33 55/110/33 56/112/33 57/114/33 58/116/33 59/118/33 60/120/33 61/122/33 62/124/33 63/126/33 64/128/33
f 2/5/34 49/98/34 3/6/34
f 3/6/35 49/98/35 5/10/35
f 5/10/36 49/98/36 6/12/36
f 6/12/37 49/98/37 7/14/37
f 7/14/38 49/98/38 9/18/38
f 9/18/39 49/98/39 11/22/39
f 11/22/40 49/98/40 12/24/40
f 12/24/41 49/98/41 14/28/41
f 49/98/42 15/30/42 14/28/42
f 49/98/43 17/34/43 15/30/43
f 49/98/44 18/36/44 17/34/44
f 49/98/45 19/38/45 18/36/45
f 49/98/46 21/42/46 19/38/46
f 49/98/47 22/44/47 21/42/47
f 49/98/48 24/48/48 22/44/48
f 49/98/49 25/50/49 24/48/49
f 27/54/50 25/50/50 49/98/50
f 29/58/51 27/54/51 49/98/51
f 30/60/52 29/58/52 49/98/52
f 31/62/53 30/60/53 49/98/53
f 33/66/54 31/62/54 49/98/54
f 34/68/55 33/66/55 49/98/55
f 36/72/56 34/68/56 49/98/56
f 38/76/57 36/72/57 49/98/57
f 39/78/58 38/76/58 49/98/58
f 41/82/59 39/78/59 49/98/59
f 42/84/60 41/82/60 49/98/60
f 44/88/61 42/84/61 49/98/61
f 45/90/62 44/88/62 49/98/62
f 46/93/63 45/90/63 49/98/63
f 48/96/33 2/4/33 3/7/33 5/11/33 6/13/33 7/15/33 9/19/33 11/23/33 12/25/33 14/29/33 15/31/33 17/35/33 18/37/33 19/39/33 21/43/33 22/45/33 24/49/33 81/163/33 80/161/33 79/159/33 78/157/33 77/155/33 76/153/33 75/151/33 74/149/33 73/147/33 72/145/33 71/143/33 70/141/33 69/139/33 68/137/33 67/135/33 66/133/33 97/195/33 96/193/33 95/191/33 94/189/33 93/187/33 92/185/33 91/183/33 90/181/33 89/179/33 36/73/33 38/77/33 39/79/33 41/83/33 42/85/33 44/89/33 45/91/33 46/92/33
f 81/163/33 24/49/33 25/51/33 27/55/33 29/59/33 30/61/33 31/63/33 33/67/33 34/69/33 36/73/33 89/179/33 88/177/33 87/175/33 86/173/33 85/171/33 84/169/33 83/167/33 82/165/33
f 48/97/64 46/93/64 49/98/64
f 48/97/65 49/98/65 2/5/65
